<?xml version="1.0" standalone="no"?>
<!DOCTYPE svg PUBLIC "-//W3C//DTD SVG 20010904//EN"
 "http://www.w3.org/TR/2001/REC-SVG-20010904/DTD/svg10.dtd">
<svg version="1.0" xmlns="http://www.w3.org/2000/svg"
 width="117.000000pt" height="120.000000pt" viewBox="0 0 117.000000 120.000000"
 preserveAspectRatio="xMidYMid meet">
<g transform="translate(0.000000,120.000000) scale(0.050000,-0.050000)"
fill="#19162b" stroke="none">
<path d="M1743 2068 c-26 -18 -104 -105 -174 -194 l-127 -160 -262 -2 -262 -2
-111 145 c-266 348 -377 282 -416 -246 -11 -140 -27 -210 -77 -319 -318 -697
563 -1347 1370 -1011 455 189 620 605 400 1007 -73 132 -87 177 -103 338 -40
380 -119 527 -238 444z m16 -760 c151 -172 109 -412 -90 -508 -265 -129 -532
169 -394 439 96 187 349 223 484 69z m-879 35 c342 -182 80 -713 -268 -544
-116 56 -172 145 -172 273 0 238 233 381 440 271z m1149 -440 c-10 -9 -62 -29
-115 -43 -53 -14 -131 -51 -175 -83 -93 -67 -120 -73 -67 -15 46 51 86 73 217
120 109 40 171 49 140 21z m1 -163 c48 -12 37 -16 -61 -18 -66 -1 -167 -14
-225 -29 -57 -15 -104 -21 -104 -13 0 21 211 74 300 75 17 0 57 -7 90 -15z
m-62 -139 c82 -31 51 -48 -41 -23 -42 12 -120 22 -172 22 -58 0 -95 9 -95 23
0 27 219 11 308 -22z"/>
<path d="M1384 1303 c-157 -146 -59 -415 149 -409 294 8 291 466 -3 466 -67 0
-99 -13 -146 -57z"/>
<path d="M608 1272 c-150 -150 -49 -392 162 -392 134 0 230 95 230 227 0 217
-239 318 -392 165z"/>
</g>
</svg>
